<svg width="90.000000" height="28.815887" viewBox="0 0 90 28.8159" fill="none" xmlns="http://www.w3.org/2000/svg" xmlns:xlink="http://www.w3.org/1999/xlink">
	<desc>
			Created with Pixso.
	</desc>
	<defs>
		<linearGradient x1="45.590878" y1="11.867444" x2="42.553261" y2="11.867444" id="paint_linear_0_12_0" gradientUnits="userSpaceOnUse">
			<stop stop-color="#003386"/>
			<stop offset="1.000000" stop-color="#0044B4"/>
		</linearGradient>
	</defs>
	<mask id="mask0_6" mask-type="alpha" maskUnits="userSpaceOnUse" x="0.000000" y="0.000000" width="90.000000" height="28.815887">
		<rect id="rect" width="89.999992" height="28.815884" fill="#000000" fill-opacity="1.000000"/>
	</mask>
	<g mask="url(#mask0_6)">
		<path id="path" d="M37.89 22.02L34.83 22.02L34.83 21.68C34.83 19.38 34.84 17.07 34.83 14.76C34.82 13.7 34.56 12.71 33.92 11.87C33.11 10.81 32.06 10.23 30.74 10.24C29 10.24 27.77 11.12 26.97 12.72C26.73 13.21 26.63 13.75 26.62 14.31C26.61 14.87 26.66 15.41 26.84 15.94C27.33 17.37 28.72 18.67 30.39 18.76C31.11 18.8 31.79 18.7 32.44 18.39C32.83 18.21 33.18 17.95 33.49 17.65C33.53 17.61 33.57 17.58 33.65 17.52L33.65 21.47C33.14 21.71 32.6 21.87 32.05 21.94C31.68 21.99 31.31 22.03 30.94 22.03C29.08 22.02 27.36 21.56 25.92 20.25C24.56 19.02 23.71 17.49 23.48 15.61C23.28 14.01 23.46 12.47 24.18 11.03C24.75 9.88 25.56 8.96 26.56 8.21C27.66 7.4 28.87 6.92 30.21 6.81C31.95 6.65 33.54 7.1 34.93 8.23C35.78 8.92 36.52 9.71 37.02 10.73C37.4 11.48 37.65 12.29 37.77 13.13C37.86 13.75 37.89 14.37 37.89 15C37.88 17.22 37.88 19.44 37.89 21.66L37.89 22.02Z" fill="#0052D9" fill-opacity="1.000000" fill-rule="nonzero"/>
		<path id="path" d="M3.07 6.86L3.07 21.97C2.87 22.05 0.27 22.06 0 21.99L0 21.69C0 15.04 0 8.39 0 1.74C0 1.35 0.05 0.96 0.23 0.61C0.47 0.14 0.93 0 1.35 0.3C1.59 0.46 1.81 0.65 2.01 0.86C2.46 1.31 2.89 1.78 3.31 2.26C4.18 3.28 5.03 4.32 5.89 5.35C6.45 6.02 7.01 6.7 7.58 7.36C7.91 7.74 8.23 8.14 8.66 8.47L14.26 1.12C14.27 1.26 14.28 1.33 14.28 1.4C14.28 2.8 14.27 4.2 14.28 5.6C14.28 5.8 14.22 5.96 14.12 6.12C13.31 7.42 12.44 8.66 11.5 9.86C10.96 10.55 10.4 11.22 9.83 11.89C9.62 12.14 9.36 12.36 9.1 12.57C8.75 12.85 8.61 12.84 8.27 12.58C8.07 12.43 7.88 12.28 7.71 12.1C7.07 11.42 6.42 10.74 5.8 10.04C4.89 9.01 4.01 7.96 3.07 6.86Z" fill="#0052D9" fill-opacity="1.000000" fill-rule="nonzero"/>
		<path id="path" d="M89.29 6.81L89.29 7.1C89.29 11.9 89.31 16.7 89.28 21.5C89.28 22.56 89.04 23.6 88.58 24.55C87.48 26.85 85.71 28.25 83.29 28.69C82 28.93 80.71 28.83 79.48 28.28C79.4 28.24 79.32 28.21 79.23 28.16L79.23 24.23C79.35 24.33 79.46 24.41 79.55 24.5C80.38 25.26 81.35 25.51 82.44 25.43C84.32 25.29 85.88 23.65 86.16 21.72C86.2 21.49 86.22 21.26 86.22 21.03C86.22 16.41 86.22 11.8 86.22 7.19L86.22 6.81L89.29 6.81Z" fill="#000000" fill-opacity="1.000000" fill-rule="nonzero"/>
		<path id="path" d="M63.37 12.93L70.11 12.93L70.11 16.12L59.58 16.12C59.28 16.12 58.98 16.06 58.7 15.95C58.06 15.71 57.84 15.18 57.95 14.51C58.02 14.06 58.25 13.69 58.54 13.37C59.09 12.73 59.64 12.11 60.2 11.48C60.75 10.85 61.29 10.21 61.84 9.58C62.29 9.06 62.75 8.55 63.2 8.04C63.77 7.39 64.34 6.74 64.91 6.08C65.36 5.57 65.81 5.06 66.26 4.54C66.82 3.9 67.38 3.25 67.95 2.6C68.5 1.97 69.06 1.33 69.62 0.7C69.77 0.52 69.92 0.35 70.1 0.15C70.11 0.25 70.13 0.32 70.13 0.39C70.13 1.88 70.13 3.38 70.13 4.87C70.13 5.03 70.08 5.15 69.97 5.26C69.4 5.91 68.84 6.58 68.28 7.23C67.72 7.88 67.16 8.53 66.6 9.17C66.04 9.82 65.49 10.46 64.93 11.1C64.45 11.66 63.97 12.22 63.49 12.78C63.46 12.81 63.44 12.84 63.37 12.93Z" fill="#000000" fill-opacity="1.000000" fill-rule="nonzero"/>
		<path id="path" d="M45.58 22.01L42.54 22.01L42.54 0.19C42.72 0.14 45.11 0.11 45.58 0.17L45.58 22.01Z" fill="url(#paint_linear_0_12_0)" fill-opacity="1.000000" fill-rule="nonzero"/>
		<path id="path" d="M50.25 0.16L53.24 0.16C53.3 0.36 53.32 21.5 53.27 21.99C53.08 22.05 50.67 22.06 50.28 22.01C50.22 21.81 50.19 0.75 50.25 0.16Z" fill="#000000" fill-opacity="1.000000" fill-rule="nonzero"/>
		<path id="path" d="M71.52 0.16L74.53 0.16L74.53 22.01L71.54 22.01C71.49 21.81 71.47 0.62 71.52 0.16Z" fill="#000000" fill-opacity="1.000000" fill-rule="nonzero"/>
		<path id="path" d="M15.68 0.15L18.66 0.15C18.71 0.36 18.73 21.57 18.68 22.01L15.68 22.01L15.68 0.15Z" fill="#0052D9" fill-opacity="1.000000" fill-rule="nonzero"/>
		<path id="path" d="M87.75 4.69C86.49 4.74 85.5 3.57 85.5 2.35C85.5 1.08 86.53 -0.02 87.78 -0.01C88.88 0 90.03 1.01 89.99 2.41C89.96 3.71 88.87 4.75 87.75 4.69Z" fill="#000000" fill-opacity="1.000000" fill-rule="nonzero"/>
	</g>
</svg>
