<svg width="60" height="60" viewBox="0 0 60 60" fill="none" xmlns="http://www.w3.org/2000/svg">
<g id="icon_currency">
<path id="Union" fill-rule="evenodd" clip-rule="evenodd" d="M29.8771 7C24.8316 7 20.1706 8.62718 16.3843 11.3858C15.7147 11.8736 14.7765 11.7262 14.2886 11.0567C13.8008 10.3871 13.9481 9.44886 14.6177 8.96103C18.8999 5.84118 24.1757 4 29.8771 4C34.7055 4 39.2285 5.32045 43.1014 7.61971L44.7064 5.55626C45.1996 4.92209 46.2015 5.09911 46.4476 5.86391L48.6804 12.8028C48.8962 13.4736 48.3691 14.1512 47.6659 14.1071L40.3909 13.6508C39.5891 13.6005 39.1709 12.6729 39.6642 12.0388L41.2431 10.0089C37.8931 8.09408 34.0144 7 29.8771 7ZM46.8342 47.6025C47.3705 48.2339 47.2935 49.1805 46.6621 49.7168C42.1388 53.5593 36.2769 55.8789 29.8771 55.8789C25.2067 55.8789 20.8215 54.6433 17.0342 52.4812L15.3203 54.5391C14.8061 55.1564 13.8107 54.946 13.5902 54.1734L11.5906 47.1638C11.3973 46.4862 11.9467 45.8265 12.6481 45.8941L19.9038 46.5933C20.7035 46.6703 21.0904 47.6113 20.5762 48.2286L18.9883 50.1352C22.2271 51.8854 25.9346 52.8789 29.8771 52.8789C35.539 52.8789 40.7184 50.8296 44.7198 47.4304C45.3512 46.8941 46.2978 46.9711 46.8342 47.6025ZM10.4677 42.878C10.04 42.876 9.6304 42.7202 9.3277 42.4445C9.025 42.1688 8.85354 41.7954 8.85048 41.4052V39.1998L8.60528 39.1439C7.69976 38.9499 6.83636 38.6186 6.05107 38.1638C5.43861 37.829 4.88299 37.4145 4.40178 36.9333C4.11998 36.638 3.97827 36.2527 4.00783 35.8621C4.03739 35.4715 4.2358 35.1076 4.55941 34.8505C4.88303 34.5933 5.30533 34.464 5.73343 34.491C6.16152 34.518 6.56034 34.699 6.84214 34.9943C6.97642 35.1354 7.30336 35.3965 7.7675 35.6628C8.61403 36.1449 9.51895 36.3873 10.4618 36.3873C11.5857 36.3873 12.6132 36.0224 13.2116 35.4151C13.3797 35.2591 13.5096 35.0723 13.5926 34.867C13.6756 34.6618 13.7099 34.4428 13.6933 34.2245C13.5823 33.3003 12.727 32.6318 10.0356 31.356L9.41387 31.0657C7.34423 30.0856 6.18535 29.3957 5.41471 28.6819C4.58277 27.9122 4.16825 27.0786 4.02814 25.896C3.95805 25.311 4.01922 24.7191 4.20792 24.1563C4.39661 23.5935 4.70889 23.0717 5.12572 22.6226C5.96058 21.6851 7.19827 20.9899 8.6082 20.665L8.84756 20.6091V18.3931C8.87236 18.0164 9.05384 17.6625 9.35494 17.4038C9.65605 17.1451 10.0541 17.001 10.4677 17.001C10.8813 17.001 11.2793 17.1451 11.5804 17.4038C11.8815 17.6625 12.063 18.0164 12.0878 18.3931V20.5984L12.333 20.6517C13.2437 20.8488 14.099 21.179 14.8872 21.6318C15.7892 22.1459 16.3058 22.6226 16.5364 22.8623C16.8086 23.1584 16.9425 23.5401 16.9095 23.9254C16.8765 24.3106 16.6792 24.6687 16.36 24.9226C16.0408 25.1765 15.6251 25.3061 15.2024 25.2834C14.7796 25.2607 14.3834 25.0876 14.099 24.8013C13.8231 24.5423 13.511 24.3175 13.1707 24.1328C12.3674 23.6602 11.4323 23.4078 10.4764 23.4057C9.35548 23.4057 8.32504 23.7706 7.72663 24.3805C7.55861 24.5367 7.42861 24.7234 7.34511 24.9286C7.26161 25.1337 7.22649 25.3527 7.24206 25.571C7.35299 26.4926 8.20828 27.1638 10.9026 28.4369L11.5215 28.7272C13.5911 29.7074 14.747 30.3999 15.5206 31.1137C16.3496 31.8834 16.7671 32.717 16.9101 33.8969C17.0502 35.0715 16.6707 36.2035 15.8096 37.1703C14.9087 38.1447 13.6892 38.8299 12.33 39.1253L12.0878 39.1812V41.3998C12.0881 41.5941 12.0465 41.7864 11.9652 41.9659C11.8839 42.1454 11.7646 42.3085 11.6141 42.4459C11.4636 42.5832 11.2848 42.6921 11.0881 42.7662C10.8914 42.8404 10.6805 42.8784 10.4677 42.878ZM56.2568 20.9796C56.8662 20.4184 56.9053 19.4695 56.3441 18.8601C55.7829 18.2507 54.8339 18.2117 54.2245 18.7729L48.5821 23.9693L43.13 18.7888C42.5295 18.2182 41.58 18.2425 41.0094 18.843C40.4388 19.4436 40.463 20.393 41.0636 20.9636L47.0661 26.6672V27.0515H42.0968C41.2684 27.0515 40.5968 27.7231 40.5968 28.5515C40.5968 29.3799 41.2684 30.0515 42.0968 30.0515H47.0661V34.6362H42.0968C41.2684 34.6362 40.5968 35.3077 40.5968 36.1362C40.5968 36.9646 41.2684 37.6362 42.0968 37.6362H47.0661V40.7216C47.0661 41.5501 47.7376 42.2216 48.5661 42.2216C49.3945 42.2216 50.0661 41.5501 50.0661 40.7216V37.6362H55.0353C55.8637 37.6362 56.5353 36.9646 56.5353 36.1362C56.5353 35.3077 55.8637 34.6362 55.0353 34.6362H50.0661V30.0515H55.0353C55.8637 30.0515 56.5353 29.3799 56.5353 28.5515C56.5353 27.7231 55.8637 27.0515 55.0353 27.0515H50.0661V26.6811L56.2568 20.9796Z" fill="#333333"/>
</g>
</svg>
